<svg version="1.0" xmlns="http://www.w3.org/2000/svg"
 width="20px" height="20px" viewBox="0 0 84.000000 83.000000"
 preserveAspectRatio="xMidYMid meet">

<g transform="translate(0.000000,83.000000) scale(0.100000,-0.100000)"
fill="#0b88b5" stroke="none">
<path d="M595 804 c-45 -15 -62 -29 -93 -78 -95 -151 83 -332 240 -244 42 24
84 81 72 99 -4 7 -3 9 3 6 15 -9 22 35 13 82 -19 105 -133 170 -235 135z"/>
<path d="M183 719 c-61 -39 -64 -113 -7 -158 59 -47 156 0 156 75 0 21 -5 40
-11 42 -6 2 -11 9 -11 16 0 15 -52 46 -77 46 -10 0 -32 -10 -50 -21z"/>
<path d="M167 433 c-9 -2 -14 -9 -11 -15 4 -7 2 -8 -5 -4 -13 8 -63 -19 -58
-32 1 -4 -1 -7 -4 -7 -17 0 -50 -42 -65 -81 -22 -57 -14 -129 20 -183 80 -126
248 -144 349 -37 40 43 57 86 57 148 -1 92 -52 169 -137 205 -31 12 -108 16
-146 6z"/>
<path d="M604 346 c-17 -8 -43 -29 -58 -48 -88 -116 56 -274 179 -198 46 29
67 65 68 119 1 58 -22 94 -77 121 -49 23 -69 24 -112 6z"/>
</g>
</svg>
